<?xml version="1.0" encoding="UTF-8"?>
<svg id="Capa_1" data-name="Capa 1" xmlns="http://www.w3.org/2000/svg" xmlns:xlink="http://www.w3.org/1999/xlink" viewBox="0 0 425.99 425.99">
  <defs>
    <style>
      .cls-1 {
        fill: none;
        filter: url(#drop-shadow-1);
      }

      .cls-2 {
        fill: #27357f;
      }

      .cls-3 {
        fill: #c3d6f0;
      }

      .cls-4 {
        fill: #242e5e;
      }
    </style>
    <filter id="drop-shadow-1" filterUnits="userSpaceOnUse">
      <feOffset dx="0" dy="0"/>
      <feGaussianBlur result="blur" stdDeviation="3"/>
      <feFlood flood-color="#1d1d1b" flood-opacity=".73"/>
      <feComposite in2="blur" operator="in"/>
      <feComposite in="SourceGraphic"/>
    </filter>
  </defs>
  <rect class="cls-2" x="0" y="0" width="425.99" height="425.99"/>
  <g>
    <path class="cls-4" d="m383.05,206.56L137.86,51.61c-6.41-4.05-14.8.36-15.11,7.93l-11.6,289.82c-.3,7.58,7.71,12.64,14.43,9.12l256.79-134.86c6.71-3.53,7.09-13,.68-17.05Z"/>
    <path class="cls-4" d="m368.69,130.89l-292.56-31.08c-7.54-.8-13.12,6.86-10.05,13.79l119.37,268.9c2.33,5.24,9.45,6,12.83,1.36l175.64-241.19c3.38-4.64.47-11.19-5.23-11.79Z"/>
  </g>
  <g class="cls-1">
    <path class="cls-3" d="m72.05,201.45c.54-3.58,1.1-7.16,1.63-10.74,3.65-24.49,13.16-46.49,28.57-65.83,19.58-24.57,44.71-40.74,75.16-48.53,16.67-4.27,33.57-5.35,50.69-3.42,19.99,2.25,38.56,8.61,55.87,18.79.15.09.34.1.87.26,4.52-4.54,9.16-9.2,13.8-13.86.91-.91,1.8-1.84,2.73-2.72,2.6-2.45,5.59-3.49,9.06-2.15,3.3,1.28,5,3.9,5.48,7.3,2.99,21.01,5.93,42.02,8.91,63.03.81,5.7,1.66,11.4,2.56,17.1,1.03,6.49-3.84,11.24-10.32,10.27-13.66-2.05-27.34-3.94-41.01-5.89-13.13-1.87-26.27-3.68-39.39-5.62-3.38-.5-5.93-2.36-7.08-5.73-1.2-3.53-.04-6.48,2.46-8.99,5.17-5.2,10.39-10.36,15.77-15.71-7.32-3.18-14.72-5.23-22.38-6.3-19.32-2.69-37.71.32-55.01,9.37-17.06,8.92-29.96,22.09-38.81,39.16-6.77,13.06-9.76,27.07-10,41.72-.11,6.4-3.96,9.76-10.29,8.9-10.69-1.45-21.41-2.82-32.04-4.63-2.15-.37-4.01-2.5-5.96-3.88-.51-.36-.85-.96-1.27-1.44,0-3.49,0-6.97,0-10.46Z"/>
    <path class="cls-3" d="m116.65,353.98c-6.72-1.95-6.88-7.72-7.65-13.14-2.35-16.48-4.72-32.96-7.07-49.43-1.25-8.78-2.51-17.57-3.68-26.36-.73-5.51,3.87-10.26,9.35-9.49,14.58,2.03,29.15,4.22,43.72,6.31,12.04,1.73,24.08,3.47,36.14,5.11,3.88.53,7.1,1.8,8.54,5.78,1.45,4-.19,7.06-3,9.83-4.84,4.75-9.59,9.59-14.54,14.54,7.21,3.12,14.55,5.14,22.15,6.21,19.23,2.69,37.52-.3,54.76-9.27,16.9-8.79,29.76-21.72,38.67-38.56,6.93-13.09,10.08-27.14,10.4-41.88.12-5.52,4.16-9.45,9.61-8.85,8.72.97,17.4,2.36,26.1,3.57,1.99.28,3.98.59,5.98.85,4.78.62,7.99,4.11,7.83,8.94-1.04,31.06-11.02,58.94-30.4,83.23-19.58,24.56-44.78,40.72-75.27,48.33-7.41,1.85-15.12,2.54-22.68,3.77-.9.15-1.79.35-2.68.52h-19.27c-.77-.19-1.54-.41-2.33-.55-9.13-1.7-18.38-2.91-27.36-5.19-11.5-2.93-22.22-8.01-32.53-14.17-5,5.01-9.84,10-14.86,14.81-2,1.92-4.4,3.42-6.62,5.11h-3.3Z"/>
  </g>
</svg>