<?xml version="1.0" encoding="UTF-8"?>
<svg id="Capa_1" data-name="Capa 1" xmlns="http://www.w3.org/2000/svg" viewBox="0 0 425.99 425.99">
  <defs>
    <style>
      .cls-1 {
        fill: #fff;
      }

      .cls-2 {
        fill: #27357f;
      }

      .cls-3 {
        fill: #242e5e;
      }
    </style>
  </defs>
  <rect class="cls-2" x="0" y="0" width="425.99" height="425.99"/>
  <g>
    <g>
      <polygon class="cls-3" points="352.87 210.74 126.27 67.54 115.55 335.39 352.87 210.74"/>
      <polygon class="cls-3" points="339.69 141.76 73.12 113.45 181.88 358.46 339.69 141.76"/>
    </g>
    <g>
      <path class="cls-1" d="m110.36,236.33c1.34,7.95,2.62,16.57,4.28,25.12,1.63,8.4,1.93,17.13,4.91,25.16,4.31-.55,34.37-25.23,44.48-36.09-7.25-17.32-12.08-35.49-14.57-52.78-12.64,12.48-25.74,25.41-39.1,38.59Z"/>
      <path class="cls-1" d="m213.95,142.07c7.09.05,13.07-5.95,13.11-13.14.04-7.28-5.7-13.08-12.99-13.12-7.21-.04-13.16,5.82-13.18,13-.02,7.08,6.02,13.21,13.06,13.26Z"/>
      <path class="cls-1" d="m265.43,160.57c-.71-8.56-2.14-17.18-4.34-25.83-8.28-32.77-25.53-60.75-47.39-86.26-56.79,62.5-65.25,128.25-41.35,188.64h81.66c9.41-25.2,13.63-50.69,11.42-76.55Zm-76.74-32.02c.07-13.86,11.47-25.06,25.51-25.04,13.93.03,25.09,11.32,25.08,25.4-.01,13.99-11.26,25.32-25.18,25.37-14.02.05-25.47-11.55-25.4-25.74Z"/>
      <path class="cls-1" d="m276.61,196.16c-2.31,17.78-7.01,36-14.37,53.66,14.1,12.11,28.06,24.07,42.63,36.58,1.31-2.21,2.55-3.44,2.79-4.84,2.78-15.98,5.41-31.98,7.98-47.46-13.37-13-26.4-25.66-39.03-37.94Z"/>
      <path class="cls-1" d="m183,287.61c-.19,0-.39,0-.59.01-3.76.26-5.73,2.67-5.77,7.32-.05,6.2-.01,12.39-.01,18.59,0,6.54-.05,13.08.03,19.6.04,4.49,2.24,6.96,6.04,7.08h.26c3.59,0,6.34-2.44,6.4-6.61.19-13.08.19-26.14.01-39.22-.05-4.4-2.63-6.78-6.36-6.78Z"/>
      <path class="cls-1" d="m242.32,286.77h-.23c-3.73.11-5.97,2.63-6.04,7.12-.08,6.53-.01,13.06-.01,19.6,0,3.64-.03,7.28-.03,10.92,0,2.72.01,5.46.07,8.18.07,4.19,2.25,6.48,5.89,6.63h.35c3.69,0,6.16-2.29,6.22-6.51.15-13.06.15-26.14.03-39.21-.05-4.22-2.66-6.74-6.24-6.74Z"/>
      <path class="cls-1" d="m212.32,287.5c-.22,0-.43.01-.66.03-3.22.24-5.42,2.48-5.73,5.91-.11,1.17-.04,2.35-.04,3.53v71.13c0,1.17-.08,2.36.04,3.53.36,3.29,2.74,5.65,5.85,5.88.16,0,.34.01.5.01,2.72,0,5-1.66,5.88-4.61.46-1.58.57-3.3.57-4.95.04-23.71.04-47.43.01-71.13,0-1.51-.04-3.06-.42-4.49-.81-3.18-2.98-4.84-6-4.84Z"/>
      <path class="cls-1" d="m181.64,259.77h62.85c1.6-3.75,2.93-6.84,4.27-9.99h-71.64c1.71,3.79,3.22,7.11,4.52,9.99Z"/>
    </g>
  </g>
</svg>