<svg id="Capa_1" data-name="Capa 1" xmlns="http://www.w3.org/2000/svg" viewBox="0 0 256 256"><title>logo</title><rect width="256" height="256" rx="128" ry="128" fill="#121226"/><path d="M293.08,265.06h0c0,0.38.35,0.47,1.2,0.48l-48.89,50.3-0.39-.39,0.22-1-0.11,0a5.22,5.22,0,0,0-2.45-.23c-14.07,0-28.14,0-42.21,0-5.86,0-9.54-2.86-10.68-8.11-0.58-2.69.33-5,1.61-7.32l25.24-45.42c7.32-13.17,14.71-26.29,21.91-39.52,2.36-4.32,5.69-6.33,10.58-6.32,18.53,0.06,37.07,0,55.6,0,6,0,9.72,2.91,10.8,8.23,0.51,2.52-.34,4.73-1.44,6.94q-10.13,20.28-20.24,40.58A6.08,6.08,0,0,0,293.08,265.06Z" transform="translate(-139.16 -176.34)" fill="#fff"/><path d="M342,282.15q-13,15.58-26,31.18Q281.14,355.15,246.3,397c-2.32,2.8-5.08,4.48-8.78,4.26-6.27-.39-10.27-6-8.84-12.37q6.21-28,12.49-55.94c1.31-5.82,2.55-11.65,3.81-17.46l0.22-1-0.11,0,48-49.33c0,0.39.35,0.48,1.2,0.5h0.91q19.28,0,38.58,0c6,0,9.76,2.89,10.8,8.22C345.18,277,344,279.72,342,282.15Z" transform="translate(-139.16 -176.34)" fill="#f8f7f7"/></svg>